<?xml version="1.0" encoding="UTF-8"?>
<svg version="1.1" xmlns="http://www.w3.org/2000/svg" width="1518" height="299">
<path d="M0 0 C11.55 0 23.1 0 35 0 C35.01458252 3.39579346 35.02916504 6.79158691 35.04418945 10.2902832 C35.09461948 21.53405462 35.16108137 32.77769359 35.23571491 44.02132893 C35.28055833 50.83557393 35.31999888 57.649768 35.34643555 64.46411133 C35.37198354 71.04538966 35.41296474 77.62645763 35.46318626 84.20760155 C35.47981799 86.71325017 35.49135518 89.21893817 35.49761391 91.72463417 C35.50729495 95.2454557 35.53540326 98.76569917 35.56762695 102.28637695 C35.56619186 103.31281311 35.56475677 104.33924927 35.5632782 105.39678955 C35.68155425 114.5879786 37.00984726 123.7392088 43 131 C47.1943641 134.68595633 51.0357905 135.36163489 56.46875 135.2734375 C64.80405636 134.3730186 71.43034492 130.07489377 77 124 C96.52944377 99.57665306 95.47969445 66.83508143 95.66955566 37.31890869 C95.7050948 32.35491325 95.76188262 27.39111731 95.81494904 22.42728424 C95.89257009 14.95155141 95.94384723 7.47606318 96 0 C107.22 0 118.44 0 130 0 C130 52.14 130 104.28 130 158 C118.45 158 106.9 158 95 158 C94.67 147.44 94.34 136.88 94 126 C92.63875 128.165625 91.2775 130.33125 89.875 132.5625 C81.16382446 146.13446174 70.30236629 156.39097733 54.25 160.74609375 C41.68247733 163.33457498 28.6275352 163.0375531 17.625 155.8125 C13.17442786 152.41751228 9.92653537 148.75446597 7 144 C6.43345703 143.11248047 6.43345703 143.11248047 5.85546875 142.20703125 C-2.33384047 127.82206486 -0.38960049 109.82583594 -0.29296875 93.9453125 C-0.28568222 91.23005415 -0.28295085 88.51479618 -0.28010559 85.79953003 C-0.27084174 79.41796367 -0.24630613 73.03655449 -0.21605712 66.65505683 C-0.18233501 59.3804068 -0.16598269 52.10574861 -0.15097082 44.83103967 C-0.11975029 29.88725826 -0.06481068 14.94368058 0 0 Z " fill="#003883" transform="translate(561,93)"/>
<path d="M0 0 C11.23573695 8.07722817 17.09378424 18.45803663 19.52684021 31.91358948 C20.26440946 37.22198426 20.13090816 42.55339354 20.11352539 47.90209961 C20.11367142 49.08330383 20.11381744 50.26450806 20.1139679 51.48150635 C20.11339282 54.7020811 20.10839606 57.92261174 20.10139394 61.14317775 C20.09511989 64.51574303 20.0945534 67.88830929 20.09336853 71.26087952 C20.09026712 77.63907038 20.08206985 84.017244 20.07201904 90.39542729 C20.06082085 97.66026157 20.05533813 104.9250967 20.05032361 112.18993747 C20.03988619 127.12663616 20.02155558 142.06331245 20 157 C8.45 157 -3.1 157 -15 157 C-15.01458252 153.63973633 -15.02916504 150.27947266 -15.04418945 146.81738281 C-15.09464245 135.68537533 -15.16125645 124.55350616 -15.23571491 113.42163467 C-15.28053841 106.67579977 -15.31998337 99.93001607 -15.34643555 93.18408203 C-15.37254258 86.66762862 -15.41299762 80.15140455 -15.46318626 73.63509369 C-15.47980493 71.15539158 -15.49135021 68.67564985 -15.49761391 66.19589996 C-15.5073093 62.70880887 -15.53543423 59.22229798 -15.56762695 55.73535156 C-15.56619186 54.72186142 -15.56475677 53.70837128 -15.5632782 52.66416931 C-15.67877599 43.75372334 -16.63225211 33.48242973 -22.5 26.33984375 C-26.04275295 23.17535348 -29.75939458 22.08192993 -34.45703125 21.91015625 C-43.4838667 22.45093441 -50.90036533 26.3735787 -57 33 C-69.73909924 49.48260648 -74.95221084 71.97939408 -75.20532227 92.51757812 C-75.21522186 93.22100342 -75.22512146 93.92442871 -75.23532104 94.64916992 C-75.26656946 96.94316397 -75.29154618 99.23717862 -75.31640625 101.53125 C-75.33700757 103.13407895 -75.35800481 104.73690285 -75.37937927 106.33972168 C-75.4342721 110.53503301 -75.48382436 114.73039068 -75.53222656 118.92578125 C-75.59157174 123.97203579 -75.65761724 129.01820664 -75.72252655 134.06439209 C-75.82012281 141.70954312 -75.90926093 149.35475067 -76 157 C-87.22 157 -98.44 157 -110 157 C-110 104.86 -110 52.72 -110 -1 C-98.78 -1 -87.56 -1 -76 -1 C-75.67 10.22 -75.34 21.44 -75 33 C-71.535 27.06 -71.535 27.06 -68 21 C-65.05795894 17.47783817 -62.22054097 14.22615167 -59 11 C-58.36320312 10.35160156 -57.72640625 9.70320313 -57.0703125 9.03515625 C-43.37571461 -3.94914092 -17.04099397 -10.34731385 0 0 Z " fill="#003883" transform="translate(1358,94)"/>
<path d="M0 0 C1.22468994 0.00829834 2.44937988 0.01659668 3.71118164 0.02514648 C21.82613542 0.36218562 37.56905386 5.17512849 50.97265625 17.9921875 C71.24156958 40.37021174 71.13137952 71.09314759 70.1875 99.4375 C68.92494919 118.11349315 61.56865958 137.32032649 47.81640625 150.3046875 C38.25174576 158.06442692 28.15703892 161.99847735 16.1875 164.4375 C15.11822266 164.66373047 15.11822266 164.66373047 14.02734375 164.89453125 C12.06475391 165.21803507 10.17629388 165.35463359 8.1875 165.4375 C7.053125 165.4890625 5.91875 165.540625 4.75 165.59375 C-16.02235613 166.21975198 -34.20416635 161.60953368 -49.99609375 147.484375 C-67.11010282 130.00339888 -70.19794016 103.23373074 -70.11499023 79.93896484 C-69.71139733 58.18249143 -65.87790826 34.71221456 -50.58984375 18.0859375 C-36.17659121 4.71804173 -19.36318471 -0.17028768 0 0 Z M-17.5546875 22.08984375 C-29.61528664 34.74570851 -31.93375686 53.33151775 -32.015625 70.1484375 C-32.02132507 71.07484039 -32.02702515 72.00124329 -32.03289795 72.95571899 C-32.04231163 74.91399 -32.04886742 76.87227659 -32.05273438 78.83056641 C-32.06235706 81.76885194 -32.09338076 84.70641193 -32.125 87.64453125 C-32.2298595 106.22822715 -31.26473039 127.88525447 -18.56640625 142.66796875 C-13.14762542 148.1350238 -7.11544612 150.41027573 0.5 150.8125 C7.54017337 150.60861082 13.80931825 148.07531644 19 143.3125 C36.84293326 123.50098021 34.28807473 89.51013762 33.046875 64.6171875 C32.11915213 51.50255968 29.70901781 37.46441654 22.1875 26.4375 C21.465625 25.365 20.74375 24.2925 20 23.1875 C9.20689514 12.63424191 -6.45627 11.56376616 -17.5546875 22.08984375 Z " fill="#003883" transform="translate(920.8125,89.5625)"/>
<path d="M0 0 C12.56570393 10.24278631 16.84251043 22.44644029 20 38 C20.33 43.61 20.66 49.22 21 55 C-10.35 55 -41.7 55 -74 55 C-68.20923967 94.69277648 -68.20923967 94.69277648 -44.25 125.8125 C-30.55532843 134.76589424 -15.07855348 137.24455514 0.9609375 134.3984375 C4.99931718 133.4835643 8.83449943 132.48192252 12.6640625 130.8984375 C15 130 15 130 18 130 C18 135.28 18 140.56 18 146 C-9.35816631 156.22476923 -39.08942232 159.56231688 -66.58203125 147.74609375 C-71.84797576 145.05594838 -76.42796091 141.72704176 -81 138 C-81.83402344 137.37351563 -82.66804688 136.74703125 -83.52734375 136.1015625 C-98.65658691 123.24290086 -105.57230538 101.49601873 -107.72265625 82.34765625 C-109.63338524 57.00760507 -108.72808029 29.10503897 -91.97265625 8.5078125 C-70.76631779 -14.27078613 -25.37929161 -18.20091392 0 0 Z M-62 12 C-68.80116048 19.80311716 -72 28.76039692 -72 39 C-52.53 39 -33.06 39 -13 39 C-14.0887176 27.02410641 -15.3960245 17.01591656 -25 9 C-36.89933018 1.63782449 -51.57139946 2.50834404 -62 12 Z " fill="#003883" transform="translate(498,100)"/>
<path d="M0 0 C1 1 1 1 1.11352539 3.22485352 C1.10567017 4.66235962 1.10567017 4.66235962 1.09765625 6.12890625 C1.09282227 7.68061523 1.09282227 7.68061523 1.08789062 9.26367188 C1.07532227 10.8965918 1.07532227 10.8965918 1.0625 12.5625 C1.05798828 13.65498047 1.05347656 14.74746094 1.04882812 15.87304688 C1.03699826 18.58208495 1.02051543 21.29101599 1 24 C-3.19024927 23.40228242 -6.9552371 22.42335809 -10.9375 21 C-21.56965322 17.38611541 -33.75764153 15.99573365 -44.203125 21.0703125 C-50.8327634 24.97443289 -54.02099764 29.25446201 -56.38671875 36.5234375 C-58.21466247 43.9050701 -58.29976782 51.37032207 -58.5625 58.9375 C-58.706875 62.918125 -58.85125 66.89875 -59 71 C-44.15 71 -29.3 71 -14 71 C-14 76.94 -14 82.88 -14 89 C-28.85 89 -43.7 89 -59 89 C-59 135.2 -59 181.4 -59 229 C-70.22 229 -81.44 229 -93 229 C-93 182.8 -93 136.6 -93 89 C-102.24 89 -111.48 89 -121 89 C-121 83.06 -121 77.12 -121 71 C-111.76 71 -102.52 71 -93 71 C-93.061875 66.66875 -93.12375 62.3375 -93.1875 57.875 C-93.2774647 39.88309329 -91.3583439 23.83277105 -78.41015625 10.34375 C-58.74784413 -7.79184141 -24.24655838 -5.23938789 0 0 Z " fill="#003883" transform="translate(1136,22)"/>
<path d="M0 0 C0 9.57 0 19.14 0 29 C-4.07411071 27.98147232 -7.08078681 26.31556407 -10.625 24.1875 C-22.9720473 16.95457617 -35.46683713 12.36857431 -49.99609375 15.68359375 C-54.22292744 17.19721473 -56.57850583 18.51682376 -59.5625 21.9375 C-61.77808615 26.65766179 -62.37592056 29.32426057 -61 34.375 C-56.70077957 45.88397505 -44.37151226 50.93881745 -34.3203125 56.671875 C-1.04849828 75.66876247 -1.04849828 75.66876247 6 92 C6.52851562 93.18851562 7.05703125 94.37703125 7.6015625 95.6015625 C9.44450613 100.61590738 9.49546381 105.45429829 9.4375 110.75 C9.42920166 111.72283936 9.42090332 112.69567871 9.41235352 113.69799805 C9.10803275 126.66466179 5.33989027 135.41775486 -3.65625 144.7109375 C-13.82096672 154.15645257 -29.33317182 158.49225406 -43 159 C-44.18335938 159.0515625 -45.36671875 159.103125 -46.5859375 159.15625 C-54.75599293 159.39217989 -62.71514983 158.85511189 -70.8125 157.75 C-72.06401855 157.58612793 -72.06401855 157.58612793 -73.34082031 157.41894531 C-80.40572167 156.36377972 -85.97234658 154.34255114 -93 152 C-93 141.44 -93 130.88 -93 120 C-87.555 122.97 -87.555 122.97 -82 126 C-68.25234996 133.36309378 -53.95164509 138.63475432 -38.23828125 134.75390625 C-33.05695107 133.00871127 -29.20508176 130.29546289 -25.5 126.3125 C-23.4297817 121.74076791 -23.24519521 117.93768131 -24 113 C-28.43151959 102.10584767 -39.15973468 96.89511685 -48.84814453 91.25634766 C-86.8604786 69.06307887 -86.8604786 69.06307887 -93 49 C-95.40984318 36.70519496 -93.77344985 24.65137915 -87 14 C-78.896125 2.84589142 -67.62180421 -2.98969756 -54.18530273 -5.53271484 C-36.31830782 -8.15380998 -16.80854945 -6.72341978 0 0 Z " fill="#003883" transform="translate(1509,96)"/>
<path d="M0 0 C7.15684318 4.85691248 11.40616139 11.4811224 13.81640625 19.71484375 C14.06565745 21.9121766 14.23740714 24.119259 14.34375 26.328125 C14.41400391 27.57658203 14.48425781 28.82503906 14.55664062 30.11132812 C14.68755243 32.71012195 14.81518719 35.30908304 14.93945312 37.90820312 C15.53142215 49.76665652 15.53142215 49.76665652 20.703125 60.171875 C28.57580614 65.91995088 40.07162996 65.1409435 49.36645508 65.2487793 C60.84905232 65.48859145 69.31021451 68.29717163 77.5390625 76.4140625 C84.24499311 83.74609965 86.22154027 91.94787231 86.08984375 101.74609375 C85.26318258 110.7212722 81.11173199 118.36844032 74.81640625 124.71484375 C66.1519296 131.56933301 56.67377754 132.74974764 45.92578125 132.00048828 C38.2239475 130.95753163 31.3328189 126.24126509 26.2109375 120.55859375 C18.69989152 110.62802315 18.50328398 99.22926745 18.33789062 87.2421875 C18.13029057 79.6369368 17.31351415 72.88684568 12.50390625 66.77734375 C5.32328494 61.26663437 -4.2375949 61.68492503 -12.93481445 61.47583008 C-29.08689272 61.03397099 -29.08689272 61.03397099 -36.18359375 56.71484375 C-37.24900391 56.09802734 -37.24900391 56.09802734 -38.3359375 55.46875 C-45.08284343 51.03363307 -48.56604384 44.68519353 -51.55859375 37.33984375 C-53.19340404 27.85794409 -52.71262617 19.33589668 -48.18359375 10.71484375 C-46.08888632 7.76140555 -43.78794545 5.22384162 -41.18359375 2.71484375 C-40.06984375 1.60109375 -40.06984375 1.60109375 -38.93359375 0.46484375 C-26.35379611 -7.54048202 -12.69378012 -7.47093678 0 0 Z " fill="#5A65A2" transform="translate(204.18359375,93.28515625)"/>
<path d="M0 0 C0.60972656 0.391875 1.21945313 0.78375 1.84765625 1.1875 C2.77771484 1.7134375 2.77771484 1.7134375 3.7265625 2.25 C10.26209085 6.31529625 14.37157381 13.0079422 16.84765625 20.1875 C18.36937736 26.78821237 18.15393943 33.68261655 18.27734375 40.42578125 C18.51137422 47.82699493 19.21681781 55.38740004 23.53515625 61.625 C31.83319543 67.23178323 41.13708282 66.85408224 50.79077148 67.19604492 C62.91811492 67.65522261 71.7636283 69.91845049 80.84765625 78.1875 C87.91726637 85.82635146 89.44029211 94.58108731 89.19921875 104.75 C88.68587735 109.7693381 87.2534428 113.77952925 84.84765625 118.1875 C84.49703125 118.83332031 84.14640625 119.47914062 83.78515625 120.14453125 C79.4408725 127.06823348 72.03213255 131.46598688 64.2890625 133.71484375 C54.16796516 135.6742882 45.10309688 134.03026679 36.3359375 128.64453125 C29.17994723 123.47565894 25.32838602 117.60466222 22.84765625 109.1875 C22.59721461 106.90539896 22.42618648 104.6136718 22.3203125 102.3203125 C22.21493164 100.37318359 22.21493164 100.37318359 22.10742188 98.38671875 C22.00678271 96.35091831 21.91027028 94.31503299 21.81860352 92.27880859 C21.46396649 84.66839021 21.05781814 78.1442477 17.84765625 71.1875 C17.51765625 70.1975 17.18765625 69.2075 16.84765625 68.1875 C8.21442669 63.6010968 -2.04190015 63.84112446 -11.53710938 63.70898438 C-22.04993133 63.42105806 -31.02471539 61.10065516 -39.15234375 54.1875 C-46.20741155 46.60869354 -49.53466481 37.97895982 -49.36328125 27.64453125 C-48.57966563 18.51686042 -44.76080984 10.11406298 -37.75 4.140625 C-27.24647044 -3.50404915 -11.97646481 -6.64589955 0 0 Z " fill="#EE7D0C" transform="translate(218.15234375,2.8125)"/>
<path d="M0 0 C6.85291452 5.72765785 11.39778665 12.27933572 13.265625 21.08203125 C13.37615709 22.74651444 13.44274723 24.41422486 13.4765625 26.08203125 C13.32354369 43.37398284 13.32354369 43.37398284 19.328125 59.14453125 C26.7720952 64.05438394 35.1380115 64.52359528 43.828125 64.64453125 C56.10219795 64.8632771 65.48614169 66.04308946 75.265625 74.08203125 C82.98265725 82.82063843 85.02246588 91.31635645 84.70703125 102.73828125 C84.11480569 111.23365484 79.61640609 119.00300482 73.27734375 124.61328125 C63.94666295 131.42558412 54.47748986 132.44974796 43.265625 131.08203125 C35.48333623 129.44846086 29.42864423 125.0495446 24.265625 119.08203125 C20.47663406 113.05943468 18.22457849 107.38428519 18.01953125 100.265625 C17.97252075 98.87923828 17.97252075 98.87923828 17.92456055 97.46484375 C17.89273682 96.49289062 17.86091309 95.5209375 17.828125 94.51953125 C17.77440398 79.29286778 17.77440398 79.29286778 11.265625 66.08203125 C3.64746179 60.7308647 -6.34302937 61.08377556 -15.35571289 60.79541016 C-27.90776185 60.37339458 -36.20990569 58.66269671 -45.52734375 49.609375 C-52.48083788 41.64670119 -53.65605507 33.33553035 -53.1484375 23.11328125 C-52.40352599 14.157697 -48.56234183 6.93278448 -41.734375 1.08203125 C-28.70646694 -7.49732284 -13.30012729 -9.32908928 0 0 Z " fill="#003883" transform="translate(52.734375,166.91796875)"/>
<path d="M0 0 C0 11.55 0 23.1 0 35 C-2.908125 35.4125 -5.81625 35.825 -8.8125 36.25 C-21.95834863 38.26805696 -34.38489932 41.52252204 -42.8125 52.5625 C-49.63807891 63.06217243 -51.10984094 75.19238444 -51.20532227 87.43554688 C-51.21522186 88.23650787 -51.22512146 89.03746887 -51.23532104 89.86270142 C-51.26663264 92.48135534 -51.291572 95.10002734 -51.31640625 97.71875 C-51.33700206 99.54578086 -51.35799918 101.37280725 -51.37937927 103.1998291 C-51.43432881 107.98698271 -51.48385663 112.77417736 -51.53222656 117.56140137 C-51.58264075 122.4550335 -51.63822241 127.3486067 -51.69335938 132.2421875 C-51.80060881 141.82807632 -51.90164816 151.41401576 -52 161 C-63.22 161 -74.44 161 -86 161 C-86 108.86 -86 56.72 -86 3 C-74.78 3 -63.56 3 -52 3 C-51.67 15.21 -51.34 27.42 -51 40 C-47.535 33.565 -47.535 33.565 -44 27 C-35.43883117 13.82680118 -26.0237863 6.04205498 -11.25 0.625 C-8 0 -8 0 0 0 Z " fill="#003883" transform="translate(832,90)"/>
<path d="M0 0 C11.55 0 23.1 0 35 0 C35 52.14 35 104.28 35 158 C23.45 158 11.9 158 0 158 C0 105.86 0 53.72 0 0 Z " fill="#003883" transform="translate(1160,93)"/>
<path d="M0 0 C7.46373283 5.37039875 13.32440209 12.91502502 15.07421875 22.1015625 C16.09966438 32.31077853 14.80009025 41.15204057 8.58984375 49.55859375 C2.24392044 56.61937403 -4.51232366 60.94715538 -14.02734375 61.93359375 C-21.98105402 62.18964881 -28.41974169 61.43648796 -35.41015625 57.55859375 C-36.37695312 57.03265625 -36.37695312 57.03265625 -37.36328125 56.49609375 C-44.33138931 52.13345218 -48.67009976 44.71131684 -50.94140625 36.9375 C-52.67217759 28.15383545 -51.69567612 19.14397753 -47.12109375 11.3671875 C-36.25158251 -3.94894197 -16.87618499 -10.09288859 0 0 Z " fill="#A0A1C8" transform="translate(141.41015625,151.44140625)"/>
<path d="M0 0 C8.79327948 5.38528085 13.66281421 12.46706603 16.78125 22.3515625 C18.34762039 30.97520606 17.31926433 39.95741091 12.8125 47.53515625 C6.93716086 55.76988356 -0.87814276 61.29608522 -10.86328125 63.30859375 C-20.92778781 64.22675926 -29.59984813 61.92399201 -37.82421875 56.0390625 C-44.88768519 50.0445881 -48.43038692 42.49100709 -49.67578125 33.43359375 C-50.35848637 24.16018257 -47.97026675 15.5224264 -42.2109375 8.2109375 C-31.62926412 -3.36614891 -14.34554965 -7.03881808 0 0 Z " fill="#003883" transform="translate(124.86328125,10.69140625)"/>
<path d="M0 0 C6.77784997 5.16407617 11.59085178 13.40613637 13.0546875 21.75 C13.97026408 32.5038631 12.1071237 41.35654321 5.06640625 49.7109375 C-1.8834414 56.7552491 -10.53140558 60.70610252 -20.4453125 61.125 C-30.10736468 60.71674427 -39.1079832 56.94643235 -45.734375 49.828125 C-51.78230918 42.14158797 -54.12439962 34.50427872 -53.9453125 24.75 C-52.52023674 13.55692922 -47.59202691 6.27677273 -38.98046875 -0.7734375 C-27.97188212 -8.76047348 -11.01102797 -7.07535934 0 0 Z " fill="#EE7D0C" transform="translate(209.9453125,231.25)"/>
<path d="M0 0 C8.3459584 5.92293822 13.44290764 12.65012633 15.80859375 22.7109375 C17.14352408 33.13156708 14.6925273 42.09387846 8.55859375 50.5859375 C2.92161366 57.33341474 -4.11188726 61.25399332 -12.92578125 62.046875 C-24.01503541 62.3005866 -31.77230968 60.80296156 -40.50390625 53.6484375 C-47.22427264 47.11856969 -50.2978515 40.71830446 -50.72583008 31.38256836 C-50.85799679 20.86554632 -48.74720827 12.40239173 -41.390625 4.53515625 C-29.72615925 -5.14034198 -13.36215217 -7.86008951 0 0 Z " fill="#F7B474" transform="translate(64.19140625,78.2890625)"/>
<path d="M0 0 C12.21 0 24.42 0 37 0 C37 11.22 37 22.44 37 34 C24.79 34 12.58 34 0 34 C0 22.78 0 11.56 0 0 Z " fill="#003883" transform="translate(1159,23)"/>
</svg>
