<?xml version="1.0" encoding="UTF-8" standalone="no"?>
<!DOCTYPE svg PUBLIC "-//W3C//DTD SVG 1.1//EN" "http://www.w3.org/Graphics/SVG/1.1/DTD/svg11.dtd">
<!-- Created with Vectornator (http://vectornator.io/) -->
<svg height="189.0pt" stroke-miterlimit="10" style="fill-rule:nonzero;clip-rule:evenodd;stroke-linecap:round;stroke-linejoin:round;" version="1.1" viewBox="0 0 982 189" width="982.0pt" xml:space="preserve" xmlns="http://www.w3.org/2000/svg" xmlns:xlink="http://www.w3.org/1999/xlink">
<defs/>
<clipPath id="ArtboardFrame">
<rect height="189" width="982" x="0" y="0"/>
</clipPath>
<g clip-path="url(#ArtboardFrame)" id="Sans-titre">
<path d="M78 9C78 23.52 78 38.04 78 53C64.75 60.5625 64.75 60.5625 60.6514 62.9006C58.9169 63.8912 57.1836 64.8844 55.4707 65.9119C52.4547 67.7035 49.7654 69.0819 46.4268 70.2478C42.5775 71.7441 40.5931 72.754 38 76C35.9943 83.7344 36.8818 92.043 37.25 99.9375C37.3102 102.17 37.365 104.402 37.4141 106.635C37.546 112.093 37.7465 117.546 38 123C38.684 123.382 39.368 123.764 40.0728 124.158C42.109 125.296 44.1448 126.435 46.1804 127.574C48.4813 128.861 50.7835 130.144 53.0872 131.426C62.8835 136.887 62.8835 136.887 67.5664 139.781C68.1953 140.165 68.8242 140.548 69.4722 140.943C71.0677 141.926 72.6497 142.931 74.2305 143.938C77.9407 145.361 79.35 144.451 83 143C85.0245 141.95 87.0214 140.846 88.9922 139.699C90.1098 139.051 91.2274 138.404 92.3789 137.736C93.5443 137.053 94.7096 136.37 95.875 135.688C97.0323 135.016 98.1898 134.345 99.3477 133.674C104.18 130.863 108.987 128.035 113.695 125.02C117 123 117 123 119 123C118.971 122.416 118.942 121.833 118.913 121.232C118.624 115.133 118.428 109.036 118.286 102.932C118.221 100.657 118.132 98.3837 118.019 96.1113C117.109 77.3026 117.109 77.3026 121.521 71.9297C124.933 69.8149 128.245 68.4053 132 67C134.109 65.8282 136.199 64.6205 138.266 63.375C140.259 62.2474 142.254 61.1224 144.25 60C145.28 59.4161 146.31 58.8321 147.371 58.2305C154.871 54 154.871 54 156 54C156.209 65.761 156.368 77.5215 156.466 89.2839C156.513 94.7459 156.577 100.207 156.679 105.668C156.777 110.939 156.831 116.21 156.854 121.482C156.871 123.493 156.903 125.503 156.952 127.513C157.317 143.244 157.317 143.244 154.139 147.482C151.799 149.078 149.664 150.062 147 151C145.995 151.597 144.989 152.193 143.953 152.808C142.615 153.545 142.615 153.545 141.25 154.297C140.239 154.858 139.227 155.418 138.185 155.996C136.609 156.864 136.609 156.864 135 157.75C127.771 161.765 120.553 165.787 113.438 170C112.472 170.569 112.472 170.569 111.487 171.149C108.33 173.013 105.183 174.889 102.046 176.786C98.8079 178.743 95.5606 180.684 92.3125 182.625C90.7694 183.569 90.7694 183.569 89.1951 184.531C87.7315 185.401 87.7315 185.401 86.2383 186.289C85.3724 186.812 84.5066 187.335 83.6145 187.874C80.436 189.243 78.4355 189.404 75 189C72.1294 187.753 72.1294 187.753 69.1328 185.992C68.0121 185.342 66.8915 184.692 65.7368 184.023C64.5327 183.307 63.3288 182.591 62.125 181.875C60.871 181.142 59.6162 180.409 58.3608 179.678C55.8002 178.185 53.244 176.684 50.6914 175.176C47.3345 173.194 43.9663 171.232 40.5938 169.277C34.7185 165.87 28.8568 162.439 23 159C21.9583 158.389 20.9166 157.777 19.8433 157.147C16.7483 155.33 13.655 153.509 10.5625 151.688C9.61391 151.13 8.66532 150.572 7.68799 149.997C6.39031 149.231 6.39031 149.231 5.06641 148.449C4.30272 147.999 3.53903 147.549 2.7522 147.085C1 146 1 146 0 145C-0.0952242 142.139-0.125533 139.302-0.113525 136.441C-0.113671 135.544-0.113817 134.646-0.113968 133.722C-0.113268 130.74-0.105474 127.759-0.0976562 124.777C-0.0957922 122.716-0.0943682 120.655-0.0933685 118.594C-0.0895424 113.157-0.0797113 107.72-0.0686645 102.284C-0.0584525 96.7405-0.0538714 91.1974-0.0488281 85.6543C-0.0380891 74.7695-0.0210115 63.8848 0 53C1.16724 52.3334 1.16724 52.3334 2.35806 51.6532C5.31485 49.9644 8.27154 48.2754 11.2282 46.5863C12.4948 45.8628 13.7614 45.1393 15.0281 44.4159C37.8172 31.4323 37.8172 31.4323 60.4453 18.1719C61.4658 17.5643 62.4862 16.9568 63.5376 16.3308C65.4695 15.1776 67.399 14.0204 69.3257 12.8586C70.1773 12.3497 71.0289 11.8408 71.9062 11.3164C72.652 10.8672 73.3977 10.4181 74.166 9.95532C76 9 76 9 78 9Z" fill="#1b8b99" fill-rule="nonzero" opacity="1" stroke="none"/>
<path d="M527.949 55.5391C534.714 60.358 536.006 68.9491 538.109 76.4922C538.484 77.8067 538.859 79.1209 539.236 80.4348C540.218 83.8747 541.188 87.318 542.155 90.7621C543.147 94.2837 544.15 97.8019 545.152 101.32C547.113 108.21 549.061 115.104 551 122C553.989 114.863 556.469 107.653 558.75 100.262C559.448 98.0383 560.145 95.815 560.844 93.5918C561.928 90.126 563.009 86.6593 564.082 83.1902C565.128 79.815 566.188 76.4444 567.25 73.0742C567.567 72.0377 567.884 71.0012 568.21 69.9333C570.237 63.5412 571.963 58.7719 578 55.25C585.876 51.9682 596.387 51.4262 604.562 54.125C609.377 56.7509 613.206 59.618 615 65C615.091 67.6317 615.126 70.2364 615.114 72.8679C615.114 73.6682 615.114 74.4684 615.114 75.2929C615.113 77.9388 615.105 80.5846 615.098 83.2305C615.096 85.0646 615.094 86.8988 615.093 88.733C615.09 93.5614 615.08 98.3897 615.069 103.218C615.058 108.145 615.054 113.071 615.049 117.998C615.038 127.665 615.021 137.333 615 147C607.41 147 599.82 147 592 147C591.505 111.36 591.505 111.36 591 75C584.968 92.8876 584.968 92.8876 578.945 110.778C578.178 113.045 577.412 115.312 576.645 117.578C576.26 118.726 575.875 119.874 575.479 121.056C567.728 143.909 567.728 143.909 562 148C556.311 150.454 550.957 150.366 545 149C539.029 145.852 536.199 142.216 534.086 135.903C533.742 134.887 533.398 133.872 533.044 132.825C532.681 131.73 532.319 130.636 531.945 129.508C531.562 128.37 531.178 127.233 530.783 126.061C529.557 122.418 528.341 118.772 527.125 115.125C525.914 111.515 524.702 107.905 523.488 104.296C522.734 102.053 521.983 99.8091 521.234 97.5642C518.592 89.6668 515.803 81.8471 513 74C512.67 98.09 512.34 122.18 512 147C504.41 147 496.82 147 489 147C488.932 136.543 488.877 126.085 488.845 115.628C488.829 110.772 488.808 105.916 488.774 101.06C488.741 96.3717 488.723 91.684 488.715 86.996C488.71 85.2091 488.699 83.4221 488.683 81.6353C488.661 79.1289 488.658 76.6231 488.659 74.1167C488.649 73.3809 488.638 72.645 488.627 71.8869C488.665 65.5704 490.308 61.6917 494.75 57.25C504.202 50.7062 517.615 51.3625 527.949 55.5391Z" fill="#575656" fill-rule="nonzero" opacity="1" stroke="none"/>
<path d="M720 55C733.421 54.7449 746.842 54.5496 760.265 54.4301C766.499 54.3727 772.73 54.2949 778.963 54.1702C784.98 54.0505 790.996 53.9848 797.014 53.9564C799.308 53.9361 801.601 53.8964 803.894 53.837C821.844 53.3901 821.844 53.3901 827.08 57.2997C829.164 60.1195 830.604 62.7927 832 66C832.762 67.1707 833.55 68.3262 834.377 69.4519C835.005 70.3998 835.634 71.3476 836.281 72.3242C836.977 73.3716 837.673 74.4189 838.391 75.498C839.087 76.5506 839.783 77.6031 840.5 78.6875C841.227 79.7826 841.954 80.8776 842.703 82.0059C844.471 84.6692 846.236 87.3339 848 90C852.408 85.894 855.775 81.3428 859.25 76.4375C859.835 75.6455 860.42 74.8536 861.023 74.0376C863.614 70.5116 866.046 67.1433 867.863 63.1523C869.944 59.1385 871.08 57.3468 875 55C884.241 53.5496 893.716 54.2717 903 55C900.211 60.1128 897.111 64.7016 893.562 69.3125C888.536 75.9279 883.557 82.5752 878.814 89.3984C876.332 92.9413 873.921 96.198 870.77 99.1719C860.621 109.352 861.802 122.06 861.794 135.605C861.807 139.74 861.908 143.864 862 148C853.75 148 845.5 148 837 148C837.067 145.526 837.134 143.053 837.203 140.504C838.141 117.363 838.141 117.363 827.562 97.7344C826.988 97.1485 826.413 96.5626 825.82 95.959C822.278 92.1466 819.356 87.8371 816.312 83.625C815.701 82.8082 815.089 81.9914 814.458 81.1499C813.891 80.3915 813.323 79.633 812.738 78.8516C811.981 77.8434 811.981 77.8434 811.208 76.8149C810 75 810 75 809 72C795.8 72 782.6 72 769 72C769 97.08 769 122.16 769 148C760.75 148 752.5 148 744 148C744 122.92 744 97.84 744 72C734.76 72 725.52 72 716 72C714.68 71.34 713.36 70.68 712 70C714.64 65.05 717.28 60.1 720 55Z" fill="#575656" fill-rule="nonzero" opacity="1" stroke="none"/>
<path d="M230.805 54.707C232.264 54.7126 233.724 54.7169 235.184 54.7199C238.975 54.7312 242.766 54.7605 246.556 54.794C250.445 54.825 254.334 54.8385 258.223 54.8535C265.815 54.8854 273.408 54.9364 281 55C278.699 66.6967 278.699 66.6967 274.768 70.8425C267.66 75.4966 255.65 73.4382 247.562 73.25C245.186 73.238 242.809 73.2315 240.432 73.2305C234.619 73.2163 228.811 73.1343 223 73C221.754 75.4915 221.866 77.1813 221.855 79.9688C221.848 81.0032 221.842 82.0377 221.835 83.1035C221.834 84.2244 221.833 85.3452 221.832 86.5C221.829 87.6466 221.825 88.7932 221.822 89.9746C221.817 92.4023 221.815 94.8301 221.815 97.2578C221.813 100.984 221.794 104.711 221.775 108.438C221.772 110.792 221.77 113.146 221.77 115.5C221.762 116.621 221.755 117.742 221.748 118.896C221.751 119.931 221.754 120.965 221.757 122.031C221.756 122.945 221.754 123.858 221.753 124.799C221.792 127.207 221.792 127.207 224 129C227.256 129.313 227.256 129.313 231.09 129.266C231.79 129.268 232.491 129.269 233.212 129.271C234.694 129.273 236.176 129.269 237.658 129.261C239.925 129.25 242.192 129.261 244.459 129.273C245.898 129.272 247.338 129.27 248.777 129.266C250.09 129.263 251.402 129.261 252.754 129.259C256.147 129.253 256.147 129.253 259 127C259.505 125.076 259.505 125.076 259.512 122.867C259.561 121.778 259.561 121.778 259.612 120.667C259.637 119.746 259.662 118.824 259.688 117.875C259.791 114.946 259.894 112.017 260 109C251.09 109 242.18 109 233 109C235 103 235 103 241 92C256.51 92 272.02 92 288 92C288.082 98.9712 288.165 105.942 288.25 113.125C288.286 115.315 288.323 117.506 288.36 119.762C288.372 121.511 288.382 123.259 288.391 125.008C288.411 125.906 288.432 126.803 288.453 127.728C288.456 133.488 287.748 136.568 284 141C282.105 142.609 282.105 142.609 280.188 143.75C279.562 144.137 278.937 144.523 278.293 144.922C271.007 148.348 264.139 148.307 256.199 148.301C254.968 148.305 253.736 148.309 252.467 148.314C249.868 148.319 247.268 148.32 244.668 148.316C240.711 148.313 236.755 148.336 232.799 148.361C230.266 148.364 227.732 148.364 225.199 148.363C224.026 148.372 222.853 148.382 221.644 148.391C211.951 148.337 203.757 147.252 196.375 140.598C193.119 136.815 192.746 133.637 192.725 128.706C192.711 126.793 192.711 126.793 192.696 124.842C192.697 123.452 192.698 122.062 192.699 120.672C192.695 119.239 192.691 117.807 192.686 116.375C192.679 113.372 192.679 110.369 192.684 107.367C192.69 103.536 192.673 99.7054 192.65 95.8746C192.635 92.9148 192.634 89.955 192.637 86.9951C192.637 85.5838 192.632 84.1725 192.622 82.7613C192.532 68.4362 192.532 68.4362 196 62C204.986 53.4892 219.165 54.5729 230.805 54.707Z" fill="#575656" fill-rule="nonzero" opacity="1" stroke="none"/>
<path d="M416.277 54.6016C418.026 54.5973 418.026 54.5973 419.81 54.5929C422.267 54.5908 424.724 54.5963 427.18 54.6089C430.922 54.6249 434.663 54.609 438.404 54.5898C440.799 54.5918 443.195 54.5957 445.59 54.6016C446.699 54.5955 447.809 54.5894 448.952 54.5832C456.819 54.6537 463.783 55.2625 469.938 60.5C474.436 65.9525 475.115 70.0044 475.161 76.9326C475.171 78.1044 475.18 79.2763 475.19 80.4836C475.194 81.742 475.199 83.0004 475.203 84.2969C475.209 85.6002 475.215 86.9036 475.22 88.2464C475.231 91.0035 475.237 93.7605 475.24 96.5176C475.246 100.029 475.27 103.54 475.298 107.051C475.321 110.424 475.323 113.798 475.328 117.172C475.34 118.422 475.353 119.672 475.366 120.961C475.327 136.098 475.327 136.098 470.654 141.579C462.975 148.403 453.744 148.162 444.047 148.203C442.991 148.209 441.936 148.215 440.849 148.22C438.62 148.23 436.391 148.236 434.162 148.24C430.775 148.25 427.39 148.281 424.004 148.312C421.831 148.319 419.658 148.324 417.484 148.328C416.483 148.34 415.482 148.353 414.45 148.366C406.817 148.342 398.988 147.418 392.562 142.938C386.122 135.555 386.555 125.719 386.602 116.398C386.599 115.122 386.596 113.846 386.593 112.53C386.591 109.846 386.595 107.162 386.609 104.478C386.626 101.057 386.616 97.6373 386.598 94.2169C386.585 90.9232 386.594 87.6296 386.602 84.3359C386.595 83.118 386.589 81.9002 386.583 80.6454C386.649 72.683 386.941 66.2012 392.688 60.1875C400.482 55.0399 407.151 54.5517 416.277 54.6016ZM413 75C411.806 77.3879 411.854 78.9038 411.823 81.5698C411.81 82.5178 411.797 83.4657 411.784 84.4424C411.777 85.4694 411.769 86.4965 411.762 87.5547C411.754 88.6078 411.746 89.6609 411.737 90.7459C411.723 92.9769 411.713 95.2079 411.705 97.439C411.688 100.854 411.644 104.269 411.6 107.684C411.589 109.849 411.581 112.014 411.574 114.18C411.557 115.203 411.539 116.226 411.521 117.28C411.442 122.822 411.442 122.822 413.902 127.614C419.255 131.15 425.055 130.264 431.312 130.312C432.549 130.342 433.786 130.371 435.061 130.4C436.85 130.413 436.85 130.413 438.676 130.426C439.768 130.44 440.86 130.455 441.986 130.47C445.982 129.847 447.439 129.176 450 126C450.737 122.345 450.676 118.749 450.629 115.031C450.631 113.959 450.634 112.886 450.636 111.781C450.635 109.515 450.622 107.249 450.597 104.983C450.563 101.513 450.576 98.0447 450.596 94.5742C450.589 92.3724 450.579 90.1706 450.566 87.9688C450.571 86.9301 450.576 85.8915 450.581 84.8214C450.574 79.2409 450.574 79.2409 448.152 74.377C442.93 71.0357 437.171 71.7782 431.188 71.75C430.107 71.7294 429.026 71.7087 427.912 71.6875C420.032 71.6435 420.032 71.6435 413 75Z" fill="#575656" fill-rule="nonzero" opacity="1" stroke="none"/>
<path d="M691 57C696.267 61.7736 698.882 67.5277 701.469 74.0234C701.867 74.9908 702.265 75.9581 702.675 76.9547C703.962 80.0899 705.231 83.2322 706.5 86.375C707.384 88.5373 708.269 90.699 709.155 92.8601C710.492 96.1187 711.828 99.3777 713.158 102.639C715.859 109.25 718.607 115.839 721.422 122.402C721.754 123.177 722.086 123.953 722.428 124.751C723.668 127.639 724.909 130.526 726.159 133.41C726.991 135.33 727.816 137.253 728.641 139.176C729.1 140.237 729.559 141.298 730.032 142.392C731 145 731 145 731 148C722.75 148 714.5 148 706 148C701.446 138.892 701.446 138.892 699.75 134.625C699.247 133.376 699.247 133.376 698.734 132.102C698 130 698 130 698 128C684.14 128 670.28 128 656 128C655.01 130.97 654.02 133.94 653 137C651.35 140.63 649.7 144.26 648 148C639.42 148 630.84 148 622 148C626.258 136.699 630.883 125.569 635.562 114.438C635.959 113.495 636.355 112.552 636.764 111.58C638.373 107.753 639.983 103.926 641.595 100.1C643.677 95.1566 645.747 90.2085 647.793 85.2499C648.608 83.2754 649.43 81.3034 650.254 79.3323C651.219 77.0218 652.175 74.7074 653.119 72.3884C656.124 65.2568 659.326 58.4971 666.625 55.0625C674.453 52.6481 683.863 52.7369 691 57ZM674 75C672.571 79.6432 671.147 84.2879 669.728 88.9343C669.244 90.5149 668.759 92.0949 668.272 93.6746C667.574 95.9446 666.88 98.2163 666.188 100.488C665.969 101.195 665.75 101.901 665.525 102.629C664.645 105.532 664 107.947 664 111C672.58 111 681.16 111 690 111C688.201 105.602 686.448 100.444 684.301 95.2148C683.571 93.4311 683.571 93.4311 682.826 91.6113C682.327 90.399 681.827 89.1866 681.312 87.9375C680.796 86.6778 680.28 85.4181 679.764 84.1582C678.512 81.1044 677.257 78.0517 676 75C675.34 75 674.68 75 674 75Z" fill="#575656" fill-rule="nonzero" opacity="1" stroke="none"/>
<path d="M331.562 54.707C332.964 54.7126 334.365 54.7169 335.766 54.7199C339.428 54.7313 343.091 54.7607 346.754 54.794C350.501 54.8249 354.249 54.8384 357.996 54.8535C365.331 54.8856 372.665 54.9367 380 55C379.687 55.929 379.373 56.858 379.05 57.8152C378.381 59.846 377.758 61.8933 377.198 63.957C375.886 67.4606 374.779 69.4582 372 72C365.625 73.9649 358.518 73.2173 351.938 73C349.176 72.9514 346.415 72.9183 343.653 72.8997C341.939 72.8836 340.225 72.8478 338.511 72.7898C337.34 72.7662 337.34 72.7662 336.144 72.7422C335.463 72.7201 334.781 72.698 334.079 72.6753C331.341 72.9695 331.341 72.9695 327 76C326.67 81.28 326.34 86.56 326 92C342.5 92 359 92 376 92C374 98 374 98 368 110C354.14 110 340.28 110 326 110C326.495 117.92 326.495 117.92 327 126C331.2 129.174 331.2 129.174 335.952 129.432C336.933 129.452 337.914 129.472 338.924 129.492C340.501 129.502 340.501 129.502 342.109 129.512C343.732 129.539 343.732 129.539 345.388 129.566C348.842 129.62 352.296 129.654 355.75 129.688C358.092 129.721 360.435 129.755 362.777 129.791C368.518 129.876 374.259 129.944 380 130C378.652 134.36 376.951 138.313 374.875 142.375C374.336 143.435 373.797 144.494 373.242 145.586C372.832 146.383 372.422 147.179 372 148C365.099 148.077 358.198 148.129 351.297 148.165C348.954 148.18 346.611 148.2 344.268 148.226C340.881 148.263 337.496 148.28 334.109 148.293C333.078 148.308 332.046 148.324 330.983 148.34C321.363 148.342 311.663 147.394 304.305 140.695C301.187 136.644 300.746 132.667 300.725 127.668C300.716 126.41 300.706 125.152 300.696 123.855C300.697 122.489 300.698 121.124 300.699 119.758C300.695 118.347 300.691 116.936 300.686 115.525C300.679 112.571 300.679 109.617 300.684 106.664C300.69 102.892 300.673 99.121 300.65 95.3496C300.635 92.436 300.634 89.5226 300.637 86.6091C300.637 85.2193 300.632 83.8296 300.622 82.4398C300.566 73.6368 300.568 67.3147 306.188 60.25C313.902 54.0785 322.121 54.5954 331.562 54.707Z" fill="#575656" fill-rule="nonzero" opacity="1" stroke="none"/>
<path d="M924.373 54.7729C925.613 54.7731 926.854 54.7733 928.133 54.7734C929.471 54.7836 930.81 54.794 932.148 54.8047C933.53 54.8084 934.911 54.8113 936.293 54.8133C939.913 54.8209 943.533 54.8405 947.153 54.8627C950.853 54.8832 954.554 54.8923 958.254 54.9023C965.503 54.9237 972.751 54.9578 980 55C979.245 59.2241 977.913 62.488 975.938 66.3125C975.39 67.3811 974.842 68.4498 974.277 69.5508C973.856 70.359 973.434 71.1673 973 72C971.845 72.0198 970.69 72.0396 969.499 72.0601C965.203 72.1363 960.908 72.225 956.612 72.3174C954.755 72.3556 952.897 72.3905 951.04 72.4219C948.366 72.4677 945.693 72.5256 943.02 72.5859C942.192 72.5975 941.365 72.609 940.513 72.6209C936.294 72.7284 932.788 72.9172 929 75C927.83 77.3394 927.866 78.7737 927.875 81.375C927.872 82.1459 927.87 82.9167 927.867 83.7109C927.996 85.9328 928.386 87.8662 929 90C932.553 91.0896 935.898 91.1554 939.602 91.2109C940.897 91.2393 942.193 91.2677 943.527 91.2969C945.568 91.3378 947.608 91.3748 949.648 91.4014C960.27 91.5514 970.489 91.9418 979 99C983.17 104.597 982.487 110.633 982.446 117.292C982.438 119.428 982.466 121.562 982.498 123.697C982.5 125.068 982.499 126.438 982.496 127.809C982.498 129.044 982.5 130.28 982.502 131.552C981.77 136.583 979.354 139.606 975.875 143.187C967.652 148.371 958.79 148.413 949.336 148.293C948.063 148.289 946.789 148.284 945.478 148.28C942.127 148.266 938.777 148.239 935.427 148.206C931.994 148.175 928.562 148.162 925.129 148.146C918.419 148.114 911.71 148.063 905 148C905.782 143.499 907.336 140.195 909.563 136.187C909.892 135.59 910.221 134.993 910.561 134.377C911.368 132.915 912.183 131.457 913 130C914.155 129.996 915.31 129.992 916.501 129.988C920.797 129.966 925.092 129.911 929.388 129.847C931.245 129.824 933.103 129.81 934.96 129.804C937.634 129.795 940.307 129.754 942.98 129.707C944.221 129.713 944.221 129.713 945.487 129.719C949.822 129.61 951.512 129.387 955.024 126.601C957.085 123.889 957.661 122.782 957.563 119.437C957.564 118.694 957.565 117.95 957.566 117.184C956.765 114.096 955.493 112.976 953 111C949.783 110.406 949.783 110.406 946.18 110.496C945.192 110.482 945.192 110.482 944.184 110.468C942.08 110.439 939.978 110.436 937.875 110.437C915.028 110.398 915.028 110.398 906.375 102.598C901.747 97.2206 902.628 90.9646 902.629 84.2104C902.625 82.1382 902.589 80.068 902.551 77.9961C902.547 76.68 902.543 75.3638 902.539 74.0078C902.531 72.8079 902.523 71.6079 902.514 70.3716C903.247 65.284 905.707 62.2245 909.375 58.75C914.184 55.5437 918.66 54.7496 924.373 54.7729Z" fill="#575656" fill-rule="nonzero" opacity="1" stroke="none"/>
<path d="M156 54C156.209 65.761 156.368 77.5215 156.466 89.2839C156.513 94.7459 156.577 100.207 156.679 105.668C156.777 110.939 156.831 116.21 156.854 121.482C156.871 123.493 156.903 125.503 156.952 127.513C157.317 143.237 157.317 143.237 154.153 147.473C151.811 149.073 149.666 150.054 147 151C145.932 151.633 144.863 152.266 143.763 152.919C142.31 153.723 142.31 153.723 140.828 154.543C139.752 155.142 138.675 155.741 137.566 156.357C135.925 157.263 135.925 157.263 134.25 158.188C132.047 159.41 129.843 160.632 127.641 161.855C126.677 162.388 125.713 162.921 124.72 163.469C121.979 164.956 121.979 164.956 119.46 166.759C117 168 117 168 114.526 167.874C111.633 166.873 109.209 165.584 106.578 164.016C105.552 163.41 104.526 162.804 103.469 162.18C101.875 161.224 101.875 161.224 100.25 160.25C98.1515 159.004 96.0526 157.76 93.9531 156.516C92.9496 155.919 91.9461 155.323 90.9121 154.709C86.9801 152.401 83.0024 150.183 79 148C79 147.01 79 146.02 79 145C79.6892 144.618 80.3785 144.236 81.0886 143.842C98.1787 134.413 98.1787 134.413 114.84 124.258C117 123 117 123 119 123C118.971 122.416 118.942 121.833 118.913 121.232C118.624 115.133 118.428 109.036 118.286 102.932C118.221 100.657 118.132 98.3837 118.019 96.1113C117.109 77.3026 117.109 77.3026 121.521 71.9297C124.933 69.8149 128.245 68.4053 132 67C134.109 65.8282 136.199 64.6205 138.266 63.375C140.259 62.2474 142.254 61.1224 144.25 60C145.28 59.4161 146.31 58.8321 147.371 58.2305C154.871 54 154.871 54 156 54Z" fill="#42a669" fill-rule="nonzero" opacity="1" stroke="none"/>
<path d="M98 0C102.135 1.26422 105.699 2.80478 109.43 4.98438C110.462 5.58355 111.494 6.18272 112.557 6.80005C114.199 7.76527 114.199 7.76527 115.875 8.75C117.603 9.75834 119.33 10.7667 121.058 11.7747C122.244 12.4673 123.429 13.1606 124.614 13.8548C128.171 15.938 131.738 18.0021 135.317 20.0467C138.089 21.6305 140.856 23.2226 143.625 24.8125C144.668 25.4045 145.71 25.9965 146.785 26.6064C147.735 27.1553 148.685 27.7041 149.664 28.2695C150.504 28.7501 151.344 29.2307 152.209 29.7258C152.8 30.1463 153.391 30.5668 154 31C154 31.66 154 32.32 154 33C153.265 33.423 152.53 33.8459 151.772 34.2817C148.995 35.8801 146.218 37.4794 143.441 39.0791C142.248 39.7659 141.056 40.4525 139.863 41.1387C138.129 42.1359 136.397 43.1343 134.664 44.1328C133.535 44.779 132.406 45.4251 131.243 46.0908C129.165 47.3143 127.111 48.5813 125.093 49.9014C124.224 50.4676 123.356 51.0338 122.461 51.6172C121.714 52.1262 120.967 52.6352 120.197 53.1597C118 54 118 54 115.441 53.2683C114.233 52.6405 114.233 52.6405 113 52C112.394 51.688 111.788 51.3759 111.163 51.0544C110.609 50.7361 110.055 50.4178 109.484 50.0898C108.873 49.7399 108.262 49.3899 107.633 49.0293C107.011 48.669 106.39 48.3087 105.75 47.9375C104.795 47.3913 104.795 47.3913 103.82 46.834C99.1407 44.1407 99.1407 44.1407 98 43C97.9073 41.6491 97.8825 40.2933 97.8865 38.9392C97.8866 38.0784 97.8866 37.2176 97.8867 36.3307C97.8919 35.3953 97.897 34.4599 97.9023 33.4961C97.9038 32.5431 97.9052 31.5901 97.9066 30.6082C97.9122 27.5512 97.9248 24.4944 97.9375 21.4375C97.9425 19.3704 97.9471 17.3034 97.9512 15.2363C97.9622 10.1575 97.9795 5.07877 98 0Z" fill="#ce1317" fill-rule="nonzero" opacity="1" stroke="none"/>
</g>
</svg>
