<svg xmlns="http://www.w3.org/2000/svg" width="170" height="38" fill="none"><path fill="#0F0" fill-rule="evenodd" d="M7.386 15.484C.534 30.204.176 30.982.12 31.262c-.207 1.028-.147 1.94.185 2.854.341.937.91 1.701 1.724 2.318.378.287 1.294.716 1.753.822.99.228 1.958.172 2.894-.169.91-.331 1.61-.842 2.274-1.657l.22-.27 7.228-15.474 7.228-15.474-4.516-2.106L14.594 0 7.386 15.484Zm7.815-3.182c.202.264.16.623-.096.81-.43.314-1.022-.135-.84-.636.05-.137.098-.201.195-.264.253-.163.577-.124.74.09Zm-2.61 1.53c.255.217.35.706.198 1.029a.918.918 0 0 1-1.186.432.835.835 0 0 1-.448-.51c-.173-.475.031-.933.499-1.117.336-.133.652-.077.937.166Zm.666 4c.237.26.226.69-.022.917-.168.153-.278.195-.502.192a.66.66 0 0 1-.634-.688c.024-.58.767-.85 1.158-.421Zm-5.684 1.392c.226.545.667 1.044 1.276 1.444.404.265 1.546.753 2.161.922 1.234.339 2.313.381 2.902.113l.196-.089-2.96 6.347c-2.825 6.057-2.97 6.36-3.178 6.64-1.073 1.438-2.96 1.926-4.562 1.178-1.603-.747-2.442-2.505-2.03-4.252.08-.338.22-.646 3.044-6.703l2.96-6.348.026.207c.015.114.09.357.165.54Z" clip-rule="evenodd"/><path fill="#0F0" d="M43.43 29.546c-2.31 0-4.061-.91-5.147-2.276v8.123h-4.901V10.744h4.901v1.89c1.086-1.33 2.836-2.24 5.147-2.24 5.077 0 8.018 4.341 8.018 9.558 0 5.252-2.941 9.594-8.018 9.594Zm-5.252-10.084v1.015c0 3.117 1.751 4.867 4.097 4.867 2.766 0 4.236-2.206 4.236-5.392 0-3.15-1.47-5.357-4.236-5.357-2.346 0-4.097 1.716-4.097 4.867Zm16.198 9.699V4.02h4.901v8.614c1.015-1.19 2.696-2.241 5.042-2.241 3.851 0 6.197 2.626 6.197 6.617v12.15h-4.902V18.41c0-2.065-.84-3.536-2.94-3.536-1.716 0-3.397 1.226-3.397 3.642V29.16h-4.901Zm37.051-9.209c0 5.742-3.711 9.594-9.033 9.594-5.322 0-9.033-3.852-9.033-9.594 0-5.707 3.711-9.558 9.033-9.558 5.322 0 9.033 3.851 9.033 9.558Zm-13.2 0c0 3.502 1.611 5.532 4.167 5.532s4.131-2.03 4.131-5.532c0-3.466-1.575-5.497-4.131-5.497s-4.167 2.031-4.167 5.497Zm14.367 6.092 3.046-3.116c1.26 1.716 3.5 2.801 5.567 2.801 1.645 0 3.081-.56 3.081-1.89 0-1.4-1.366-1.576-4.307-2.136-2.976-.595-6.267-1.366-6.267-5.322 0-3.536 3.116-5.987 7.528-5.987 3.255 0 6.162 1.33 7.597 3.186l-2.801 3.081c-1.225-1.575-3.011-2.45-4.936-2.45-1.541 0-2.556.665-2.556 1.68 0 1.19 1.225 1.4 3.501 1.856 3.221.665 7.038 1.4 7.038 5.567 0 3.85-3.572 6.232-7.983 6.232-3.327 0-6.828-1.226-8.508-3.502Zm29.409 3.502c-2.311 0-4.061-.91-5.147-2.276v8.123h-4.901V10.744h4.901v1.89c1.086-1.33 2.836-2.24 5.147-2.24 5.077 0 8.018 4.341 8.018 9.558 0 5.252-2.941 9.594-8.018 9.594Zm-5.251-10.084v1.015c0 3.117 1.75 4.867 4.096 4.867 2.766 0 4.237-2.206 4.237-5.392 0-3.15-1.471-5.357-4.237-5.357-2.346 0-4.096 1.716-4.096 4.867Zm16.196 9.699V4.02h4.903v8.614c1.015-1.19 2.695-2.241 5.041-2.241 3.852 0 6.197 2.626 6.197 6.617v12.15h-4.902V18.41c0-2.065-.84-3.536-2.941-3.536-1.715 0-3.395 1.226-3.395 3.642V29.16h-4.903ZM170 19.952c0 5.742-3.711 9.594-9.033 9.594-5.322 0-9.033-3.852-9.033-9.594 0-5.707 3.711-9.558 9.033-9.558 5.322 0 9.033 3.851 9.033 9.558Zm-13.2 0c0 3.502 1.611 5.532 4.167 5.532s4.132-2.03 4.132-5.532c0-3.466-1.576-5.497-4.132-5.497-2.556 0-4.167 2.031-4.167 5.497Z"/></svg>